# xmcd
#
# Track frame offsets:
#	150
#	17090
#	43330
#	61782
#	82057
#	100535
#	120882
#	141777
#	162395
#	181042
#	190885
#	207665
#	228645
#	250597
#	272277
#
# Disc length: 3974 seconds
#
# Revision: 1
# Processed by: cddbd v1.5.1PL0 Copyright (c) Steve Scherf et al.
# Submitted via: CDex 1.50Beta5
#
DISCID=c30f840f
DTITLE=横山輝一 - LONG GOOD BYE,A〜K’s STUDIO&LIVE BEST Disc 1
DYEAR=1993
DGENRE=Rock
TTITLE0=ブギー・ウォーキン
TTITLE1=In Your Eyes
TTITLE2=Rainy Day
TTITLE3=恋をしようぜ
TTITLE4=Falling In Love
TTITLE5=LULLABY IN BLUE
TTITLE6=プレッシャー
TTITLE7=Truly
TTITLE8=STATUS
TTITLE9=(We Gonna Get)FAKE
TTITLE10=BREAK OUT
TTITLE11=JAMMIN’ NIGHT
TTITLE12=RHYTHM OF LOVE
TTITLE13=BELIEVE IN MAGIC
TTITLE14=REMEMBER
EXTD=
EXTT0=
EXTT1=
EXTT2=
EXTT3=
EXTT4=
EXTT5=
EXTT6=
EXTT7=
EXTT8=
EXTT9=
EXTT10=
EXTT11=
EXTT12=
EXTT13=
EXTT14=
PLAYORDER=
